# xmcd
#
# Track frame offsets: 
#        150
#        11201
#        27508
#        40430
#        55999
#        69738
#        87232
#        99427
#        114258
#        126542
#        143388
#        161062
#        175114
#
# Disc length: 2533 seconds
#
# Revision: 0
# Processed by: cddbd v1.5.1PL0 Copyright (c) Steve Scherf et al.
# Submitted via: ExactAudioCopy v0.95a3
#
DISCID=b209e30d
DTITLE=Zona Jones - Harleys and Horses
DYEAR=2003
DGENRE=
TTITLE0=One Fool On A Stool
TTITLE1=Whiskey Kind Of Way
TTITLE2=House Of Negotiable Affections
TTITLE3=Two Hearts
TTITLE4=Back In Your Arms
TTITLE5=Harleys and Horses
TTITLE6=Honky Tonk Baby
TTITLE7=I'll Give It To You
TTITLE8=I Said All This
TTITLE9=My Hats' Off To Him
TTITLE10=In My Eyes
TTITLE11=All Of Me
TTITLE12=Now We're Even
EXTD=
EXTT0=
EXTT1=
EXTT2=
EXTT3=
EXTT4=
EXTT5=
EXTT6=
EXTT7=
EXTT8=
EXTT9=
EXTT10=
EXTT11=
EXTT12=
PLAYORDER=
